<?xml version="1.0" encoding="utf-8"?>
<!-- Generator: Adobe Illustrator 27.0.0, SVG Export Plug-In . SVG Version: 6.00 Build 0)  -->
<svg version="1.1" id="Ebene_1" xmlns="http://www.w3.org/2000/svg" xmlns:xlink="http://www.w3.org/1999/xlink" x="0px" y="0px"
	 viewBox="0 0 175 125" style="enable-background:new 0 0 175 125;" xml:space="preserve">
<style type="text/css">
	.st0{fill:#FFDC00;}
</style>
<g>
	<path class="st0" d="M61.6,111.8v-3.2h3.2v3.2v3.2v3.2h-3.2V115V111.8z M68.1,121.5v-3.2h-3.2v3.2H68.1z M6.5,1.6H3.2v3.2h3.2h3.2
		V1.6H6.5z M110.2,111.8v3.2v3.2h3.2V115v-3.2v-3.2h-3.2V111.8z M106.9,121.5h3.2v-3.2h-3.2V121.5z M175,24.3v3.2v3.2V34v3.2v3.2
		v3.2h-3.2V47h-3.2v3.2h-3.2H162h-3.2h-3.2h-3.2h-3.2h-3.2v3.2h-3.2h-3.2h-3.2h-3.2v3.2h-3.2V60h-3.2v3.2v3.2v3.2v3.2h-3.2v3.2h-3.2
		v3.2v3.2v3.2v3.2v3.2v3.2h-3.2v3.2v3.2v3.2v3.2h-3.2v-3.2h-3.2v-3.2h-3.2h-3.2h-3.2h-3.2v-3.2H94h-3.2v-3.2h-3.2h-3.2v3.2H81h-3.2
		v3.2h-3.2h-3.2h-3.2h-3.2v3.2h-3.2v3.2h-3.2v-3.2v-3.2v-3.2v-3.2h-3.2v-3.2v-3.2v-3.2v-3.2v-3.2v-3.2h-3.2v-3.2h-3.2v-3.2v-3.2
		v-3.2V60h-3.2v-3.2h-3.2v-3.2h-3.2h-3.2h-3.2h-3.2v-3.2h-3.2h-3.2h-3.2h-3.2H13H9.7H6.5V47H3.2v-3.2H0v-3.2v-3.2V34v-3.2v-3.2v-3.2
		h3.2v-3.2v-3.2h3.2v-3.2v-3.2h3.2V8.1V4.9H13v3.2h3.2v3.2v3.2H13v3.2H9.7v3.2v3.2H6.5v3.2v3.2V34h3.2v3.2v3.2H13h3.2h3.2h3.2h3.2
		h3.2h3.2h3.2h3.2h3.2h3.2h3.2v3.2h3.2h3.2h3.2V47h3.2h3.2v3.2h3.2V47h3.2h3.2v-3.2h3.2H81h3.2h3.2h3.2H94h3.2h3.2V47h3.2h3.2v3.2
		h3.2V47h3.2h3.2v-3.2h3.2h3.2h3.2v-3.2h3.2h3.2h3.2h3.2h3.2h3.2h3.2h3.2h3.2h3.2h3.2h3.2v-3.2V34h3.2v-3.2v-3.2v-3.2h-3.2v-3.2
		v-3.2H162v-3.2h-3.2v-3.2V8.1h3.2V4.9h3.2v3.2v3.2h3.2v3.2v3.2h3.2v3.2v3.2H175z M110.2,76.2h-3.2v3.2h-3.2h-3.2v3.2h-3.2H94v3.2
		v3.2h3.2h3.2h3.2h3.2v-3.2h3.2v-3.2v-3.2V76.2z M81,89.1v-3.2v-3.2h-3.2h-3.2v-3.2h-3.2h-3.2v-3.2h-3.2v3.2v3.2v3.2h3.2v3.2h3.2
		h3.2h3.2H81z M171.8,4.9V1.6h-3.2h-3.2v3.2h3.2H171.8z"/>
</g>
</svg>
